<svg width="66" height="48" viewBox="0 0 66 48" fill="none" xmlns="http://www.w3.org/2000/svg">
<path d="M61.433 29.7671C61.433 33.9019 58.4367 37.6988 53.1335 40.5321C47.8675 43.3456 40.588 45.0427 32.7153 45.0427C24.8426 45.0427 17.563 43.3456 12.297 40.5321C6.99394 37.6988 3.9976 33.9019 3.9976 29.7671C3.9976 25.4781 7.17312 19.7665 12.5313 15.0527C17.8419 10.3808 25.0511 6.91752 32.7153 6.91752C40.3795 6.91752 47.5887 10.3808 52.8992 15.0527C58.2575 19.7665 61.433 25.4781 61.433 29.7671Z" fill="#75C9FF" stroke="#12132D" stroke-width="2.47566"/>
<circle cx="19.3465" cy="11.3719" r="8.41726" fill="white" stroke="#12132D" stroke-width="2.47566"/>
<circle cx="46.0836" cy="11.3719" r="8.41726" fill="white" stroke="#12132D" stroke-width="2.47566"/>
<circle cx="19.3465" cy="11.3726" r="2.2281" fill="#12132D"/>
<circle cx="46.0836" cy="11.3726" r="2.2281" fill="#12132D"/>
<line x1="19.0992" y1="32.1684" x2="46.3315" y2="32.1684" stroke="#12132D" stroke-width="2.47566" stroke-linecap="round"/>
</svg>
