<svg width="66" height="48" viewBox="0 0 66 48" fill="none" xmlns="http://www.w3.org/2000/svg">
<path d="M61.6691 29.7671C61.6691 33.9019 58.6727 37.6988 53.3696 40.5321C48.1036 43.3456 40.824 45.0427 32.9514 45.0427C25.0787 45.0427 17.7991 43.3456 12.5331 40.5321C7.23002 37.6988 4.23368 33.9019 4.23368 29.7671C4.23368 25.4781 7.4092 19.7665 12.7674 15.0527C18.0779 10.3808 25.2872 6.91752 32.9514 6.91752C40.6156 6.91752 47.8248 10.3808 53.1353 15.0527C58.4936 19.7665 61.6691 25.4781 61.6691 29.7671Z" fill="#78F1BE" stroke="#12132D" stroke-width="2.47566"/>
<circle cx="19.5826" cy="11.3719" r="8.41726" fill="white" stroke="#12132D" stroke-width="2.47566"/>
<circle cx="46.3196" cy="11.3719" r="8.41726" fill="white" stroke="#12132D" stroke-width="2.47566"/>
<circle cx="19.5826" cy="11.3726" r="2.2281" fill="#12132D"/>
<circle cx="46.3196" cy="11.3726" r="2.2281" fill="#12132D"/>
</svg>
