<svg width="66" height="48" viewBox="0 0 66 48" fill="none" xmlns="http://www.w3.org/2000/svg"><path d="M63.1798 29.7671C63.1798 33.9019 60.1835 37.6988 54.8804 40.5321C49.6144 43.3456 42.3348 45.0427 34.4621 45.0427C26.5895 45.0427 19.3099 43.3456 14.0439 40.5321C8.74076 37.6988 5.74442 33.9019 5.74442 29.7671C5.74442 25.4781 8.91994 19.7665 14.2782 15.0527C19.5887 10.3808 26.7979 6.91752 34.4621 6.91752C42.1263 6.91752 49.3356 10.3808 54.6461 15.0527C60.0043 19.7665 63.1798 25.4781 63.1798 29.7671Z" fill="#FFE482" stroke="#12132D" stroke-width="2.47566"/>
<circle cx="21.0936" cy="11.3719" r="8.41726" fill="white" stroke="#12132D" stroke-width="2.47566"/>
<circle cx="47.8306" cy="11.3719" r="8.41726" fill="white" stroke="#12132D" stroke-width="2.47566"/>
<circle cx="21.0936" cy="11.3726" r="2.2281" fill="#12132D"/>
<circle cx="47.8306" cy="11.3726" r="2.2281" fill="#12132D"/>
<path d="M19.6082 33.2822L27.2392 29.6575C31.8098 27.4864 37.1145 27.4864 41.6851 29.6575L49.3161 33.2822" stroke="#12132D" stroke-width="2.47566" stroke-linecap="round"/>
<path fill-rule="evenodd" clip-rule="evenodd" d="M57.0985 13.8126C57.0985 13.8125 57.0985 13.8125 57.0985 13.8124C58.4786 8.66177 55.422 3.36752 50.2713 1.98741C45.1206 0.60729 39.8264 3.66392 38.4463 8.81458C38.4463 8.81463 38.4463 8.81468 38.4463 8.81473L57.0985 13.8126Z" fill="#FFE482"/>
<circle cx="47.7726" cy="11.3135" r="8.41726" transform="rotate(105 47.7726 11.3135)" stroke="#12132D" stroke-width="2.47566"/>
<path fill-rule="evenodd" clip-rule="evenodd" d="M11.7094 13.8126C11.7094 13.8125 11.7094 13.8125 11.7094 13.8124C10.3293 8.66177 13.3859 3.36752 18.5365 1.98741C23.6872 0.60729 28.9815 3.66392 30.3616 8.81459C30.3616 8.81463 30.3616 8.81468 30.3616 8.81473L11.7094 13.8126Z" fill="#FFE482"/>
<circle cx="9.65509" cy="9.65509" r="8.41726" transform="matrix(0.258819 0.965926 0.965926 -0.258819 9.21021 4.48633)" stroke="#12132D" stroke-width="2.47566"/>
<line y1="-1.23783" x2="17.1751" y2="-1.23783" transform="matrix(0.965755 0.259457 0.259456 -0.965755 40.8989 6.91602)" stroke="#12132D" stroke-width="2.47566"/>
<line x1="28.3466" y1="8.11146" x2="11.7596" y2="12.5677" stroke="#12132D" stroke-width="2.47566"/>
</svg>
