<svg width="65" height="48" viewBox="0 0 65 48" fill="none" xmlns="http://www.w3.org/2000/svg">
<g clip-path="url(#clip0_209_6564)">
<path d="M60.9608 29.7671C60.9608 33.9019 57.9645 37.6988 52.6614 40.5321C47.3954 43.3456 40.1158 45.0427 32.2431 45.0427C24.3705 45.0427 17.0909 43.3456 11.8249 40.5321C6.52177 37.6988 3.52543 33.9019 3.52543 29.7671C3.52543 25.4781 6.70095 19.7665 12.0592 15.0527C17.3697 10.3808 24.5789 6.91752 32.2431 6.91752C39.9073 6.91752 47.1166 10.3808 52.4271 15.0527C57.7853 19.7665 60.9608 25.4781 60.9608 29.7671Z" fill="#FCAC4D" stroke="#12132D" stroke-width="2.47566"/>
<circle cx="18.8743" cy="11.3719" r="8.41726" fill="white" stroke="#12132D" stroke-width="2.47566"/>
<circle cx="45.6114" cy="11.3719" r="8.41726" fill="white" stroke="#12132D" stroke-width="2.47566"/>
<circle cx="19.617" cy="13.8472" r="2.2281" fill="#12132D"/>
<circle cx="44.8687" cy="13.5992" r="2.2281" fill="#12132D"/>
<path d="M17.3892 33.4061L22.7453 29.7461C28.4725 25.8325 36.0138 25.8325 41.741 29.7461L47.0971 33.4061" stroke="#12132D" stroke-width="2.47566" stroke-linecap="round"/>
<path fill-rule="evenodd" clip-rule="evenodd" d="M54.8797 13.8126C54.8797 13.8125 54.8797 13.8125 54.8797 13.8124C56.2599 8.66177 53.2032 3.36752 48.0526 1.98741C42.9019 0.60729 37.6077 3.66392 36.2275 8.81459C36.2275 8.81464 36.2275 8.81469 36.2275 8.81475L54.8797 13.8126Z" fill="#FCAC4D"/>
<circle cx="45.5539" cy="11.3135" r="8.41726" transform="rotate(105 45.5539 11.3135)" stroke="#12132D" stroke-width="2.47566"/>
<path fill-rule="evenodd" clip-rule="evenodd" d="M9.49041 13.8126C9.4904 13.8125 9.49039 13.8125 9.49038 13.8124C8.11026 8.66177 11.1669 3.36752 16.3176 1.98741C21.4682 0.60729 26.7625 3.66392 28.1426 8.81459C28.1426 8.81463 28.1426 8.81467 28.1426 8.81472L9.49041 13.8126Z" fill="#FCAC4D"/>
<circle cx="9.65509" cy="9.65509" r="8.41726" transform="matrix(0.258819 0.965926 0.965926 -0.258819 6.99121 4.48633)" stroke="#12132D" stroke-width="2.47566"/>
<path d="M21.8454 40.8385C21.8454 43.9793 19.297 46.5271 16.1513 46.5271C13.0057 46.5271 10.4573 43.9793 10.4573 40.8385C10.4573 39.2232 11.2736 36.832 12.6187 33.7752C13.2767 32.2797 14.0354 30.6787 14.8365 28.9937C14.874 28.9147 14.9116 28.8356 14.9493 28.7562C15.3439 27.9263 15.7475 27.0774 16.1513 26.2157C16.5552 27.0775 16.9588 27.9263 17.3534 28.7563C17.3911 28.8356 17.4287 28.9147 17.4662 28.9937C18.2672 30.6787 19.026 32.2797 19.684 33.7752C21.0291 36.832 21.8454 39.2232 21.8454 40.8385Z" fill="#75C9FF" stroke="#12132D" stroke-width="2.47566"/>
<line x1="26.8702" y1="10.34" x2="10.2833" y2="14.7962" stroke="#12132D" stroke-width="2.47566"/>
<line x1="37.7562" y1="10.4238" x2="52.8577" y2="14.3848" stroke="#12132D" stroke-width="2.47566"/>
</g>
<defs>
<clipPath id="clip0_209_6564">
<rect width="64.3673" height="47.5327" fill="white" transform="translate(0.243164)"/>
</clipPath>
</defs>
</svg>
