<svg width="65" height="48" viewBox="0 0 65 48" fill="none" xmlns="http://www.w3.org/2000/svg">
<path d="M60.7504 29.7671C60.7504 33.9019 57.754 37.6988 52.4509 40.5321C47.1849 43.3456 39.9053 45.0427 32.0327 45.0427C24.16 45.0427 16.8804 43.3456 11.6144 40.5321C6.31132 37.6988 3.31498 33.9019 3.31498 29.7671C3.31498 25.4781 6.4905 19.7665 11.8487 15.0527C17.1592 10.3808 24.3685 6.91752 32.0327 6.91752C39.6969 6.91752 46.9061 10.3808 52.2166 15.0527C57.5749 19.7665 60.7504 25.4781 60.7504 29.7671Z" fill="#FF6E65" stroke="#12132D" stroke-width="2.47566"/>
<circle cx="18.6641" cy="10.3836" r="8.41726" fill="#FF6E65" stroke="#12132D" stroke-width="2.47566"/>
<circle cx="45.4012" cy="10.3836" r="8.41726" fill="#FF6E65" stroke="#12132D" stroke-width="2.47566"/>
<path d="M40.9451 14.8398H49.8575V40.7105L40.9451 43.31V14.8398Z" fill="#75C9FF"/>
<path d="M14.208 14.8398H23.1204V43.31L14.208 40.8343V14.8398Z" fill="#75C9FF"/>
<path fill-rule="evenodd" clip-rule="evenodd" d="M44.9213 30.6852C47.1213 33.0909 44.9319 36.3783 41.672 36.3783H22.146C18.886 36.3783 16.6966 33.0909 18.8966 30.6852C22.093 27.19 26.7385 24.9902 31.909 24.9902C37.0795 24.9902 41.7249 27.19 44.9213 30.6852Z" fill="#12132D"/>
<line x1="12.97" y1="14.8398" x2="12.97" y2="40.8343" stroke="#12132D" stroke-width="2.47566"/>
<line x1="24.3582" y1="14.8398" x2="24.3582" y2="43.31" stroke="#12132D" stroke-width="2.47566"/>
<line x1="39.7073" y1="14.8398" x2="39.7073" y2="43.31" stroke="#12132D" stroke-width="2.47566"/>
<line x1="51.0953" y1="14.8398" x2="51.0953" y2="40.8343" stroke="#12132D" stroke-width="2.47566"/>
<path d="M60.7504 29.7671C60.7504 33.9019 57.754 37.6988 52.4509 40.5321C47.1849 43.3456 39.9053 45.0427 32.0327 45.0427C24.16 45.0427 16.8804 43.3456 11.6144 40.5321C6.31132 37.6988 3.31498 33.9019 3.31498 29.7671C3.31498 25.4781 6.4905 19.7665 11.8487 15.0527C17.1592 10.3808 24.3685 6.91752 32.0327 6.91752C39.6969 6.91752 46.9061 10.3808 52.2166 15.0527C57.5749 19.7665 60.7504 25.4781 60.7504 29.7671Z" stroke="#12132D" stroke-width="2.47566"/>
<mask id="path-12-inside-1_209_6565" fill="white">
<path fill-rule="evenodd" clip-rule="evenodd" d="M10.3736 15.3339H26.9536C27.8205 13.886 28.3187 12.192 28.3187 10.3817C28.3187 5.04929 23.996 0.726562 18.6636 0.726562C13.3313 0.726562 9.00854 5.04929 9.00854 10.3817C9.00854 12.192 9.50679 13.886 10.3736 15.3339Z"/>
</mask>
<path fill-rule="evenodd" clip-rule="evenodd" d="M10.3736 15.3339H26.9536C27.8205 13.886 28.3187 12.192 28.3187 10.3817C28.3187 5.04929 23.996 0.726562 18.6636 0.726562C13.3313 0.726562 9.00854 5.04929 9.00854 10.3817C9.00854 12.192 9.50679 13.886 10.3736 15.3339Z" fill="#FF6E65"/>
<path d="M10.3736 15.3339L8.24953 16.6056L8.97034 17.8096H10.3736V15.3339ZM26.9536 15.3339V17.8096H28.3569L29.0777 16.6056L26.9536 15.3339ZM10.3736 17.8096H26.9536V12.8583H10.3736V17.8096ZM29.0777 16.6056C30.1682 14.7841 30.7944 12.6522 30.7944 10.3817H25.8431C25.8431 11.7318 25.4727 12.9879 24.8295 14.0623L29.0777 16.6056ZM30.7944 10.3817C30.7944 3.68202 25.3633 -1.7491 18.6636 -1.7491V3.20223C22.6287 3.20223 25.8431 6.41656 25.8431 10.3817H30.7944ZM18.6636 -1.7491C11.964 -1.7491 6.53288 3.68202 6.53288 10.3817H11.4842C11.4842 6.41656 14.6985 3.20223 18.6636 3.20223V-1.7491ZM6.53288 10.3817C6.53288 12.6522 7.15904 14.7841 8.24953 16.6056L12.4978 14.0623C11.8545 12.9879 11.4842 11.7318 11.4842 10.3817H6.53288Z" fill="#12132D" mask="url(#path-12-inside-1_209_6565)"/>
<mask id="path-14-inside-2_209_6565" fill="white">
<path fill-rule="evenodd" clip-rule="evenodd" d="M37.1117 15.3339H53.6917C54.5585 13.886 55.0568 12.192 55.0568 10.3817C55.0568 5.04929 50.734 0.726562 45.4017 0.726562C40.0693 0.726562 35.7466 5.04929 35.7466 10.3817C35.7466 12.192 36.2448 13.886 37.1117 15.3339Z"/>
</mask>
<path fill-rule="evenodd" clip-rule="evenodd" d="M37.1117 15.3339H53.6917C54.5585 13.886 55.0568 12.192 55.0568 10.3817C55.0568 5.04929 50.734 0.726562 45.4017 0.726562C40.0693 0.726562 35.7466 5.04929 35.7466 10.3817C35.7466 12.192 36.2448 13.886 37.1117 15.3339Z" fill="#FF6E65"/>
<path d="M37.1117 15.3339L34.9876 16.6056L35.7084 17.8096H37.1117V15.3339ZM53.6917 15.3339V17.8096H55.095L55.8158 16.6056L53.6917 15.3339ZM37.1117 17.8096H53.6917V12.8583H37.1117V17.8096ZM55.8158 16.6056C56.9063 14.7841 57.5324 12.6522 57.5324 10.3817H52.5811C52.5811 11.7318 52.2108 12.9879 51.5676 14.0623L55.8158 16.6056ZM57.5324 10.3817C57.5324 3.68202 52.1013 -1.7491 45.4017 -1.7491V3.20223C49.3668 3.20223 52.5811 6.41656 52.5811 10.3817H57.5324ZM45.4017 -1.7491C38.702 -1.7491 33.2709 3.68202 33.2709 10.3817H38.2222C38.2222 6.41656 41.4366 3.20223 45.4017 3.20223V-1.7491ZM33.2709 10.3817C33.2709 12.6522 33.8971 14.7841 34.9876 16.6056L39.2358 14.0623C38.5926 12.9879 38.2222 11.7318 38.2222 10.3817H33.2709Z" fill="#12132D" mask="url(#path-14-inside-2_209_6565)"/>
</svg>
